<svg xmlns="http://www.w3.org/2000/svg" width="532" height="532" xmlns:v="https://vecta.io/nano"><g fill="#a0616a"><circle cx="270.759" cy="260.929" r="86.349"/><path d="M199.288 366.614l18-46 93-14 9.992 101.827-94 2-26.992-43.827z"/></g><path d="M357.944 276.861c-1.121 4.49-3.386 15.18-6.924 15.232-2.89.042-5.657-46.335-2.77-54.006 3.316-8.813-5.399-19.961-11.964-25.683-11.804-10.289-38.007 11.805-64.651 1.796-.706-.265-.566-.235-8.979-3.592-25.89-10.33-27.251-10.628-28.734-10.775-12.55-1.242-27.867 9.028-34.121 21.55-6.502 13.017-1.069 24.181-7.183 55.672-.712 3.671-1.831 8.902-3.592 8.979-3.218.14-6.361-17.048-7.183-21.55-3.448-18.862-6.772-37.047 0-57.468.739-2.227 5.292-10.495 14.367-26.938l21.55-37.713c13.629-15.326 38.436-29.307 59.264-23.346 10.527 3.013 8.64 7.857 21.55 12.571 23.008 8.401 43.005-1.873 46.693 5.388 1.954 3.846-3.512 7.017-3.592 14.367-.136 12.611 15.814 16.256 25.142 28.734 5.014 6.708 13.598 6.78-8.872 96.782h0z" fill="#2f2e41"/><path d="M464.92 442.61a271.79 271.79 0 0 1-10.83 11.48C403.85 504.33 337.05 532 266 532c-61.41 0-119.64-20.67-166.75-58.72-.03-.02-.05-.04-.08-.07-6.25-5.039-12.3-10.399-18.14-16.06l.36-2.61c.82-5.8 1.73-11.33 2.75-16.42 8.35-41.72 118.22-85.52 121.08-86.66.04-.01.06-.02.06-.02s14.14 52.12 74.73 51.45c41.27-.45 33.27-51.45 33.27-51.45l1.44.3c11.92 2.53 94.68 20.71 127.33 45.521 9.95 7.56 17.09 23.66 22.22 42.859l.65 2.49z" fill="#7510f7"/><path d="M454.09 77.91C403.85 27.671 337.05 0 266 0S128.15 27.671 77.91 77.91 0 194.95 0 266c0 64.851 23.05 126.16 65.29 174.57 4.03 4.63 8.24 9.14 12.62 13.521l3.12 3.06c5.84 5.66 11.89 11.021 18.14 16.06.03.03.05.051.08.07C146.36 511.33 204.59 532 266 532c71.05 0 137.85-27.67 188.09-77.909a271.79 271.79 0 0 0 10.83-11.48C508.29 393.891 532 331.771 532 266c0-71.05-27.67-137.85-77.91-188.09zm10.18 362.21a265.24 265.24 0 0 1-25.33 25.181 264.13 264.13 0 0 1-56.56 37.63c-7.19 3.55-14.56 6.779-22.1 9.67C330.99 523.841 299.2 530 266 530c-32.04 0-62.76-5.739-91.19-16.239-11.67-4.301-22.95-9.41-33.78-15.261l-4.74-2.619c-8.26-4.681-16.25-9.79-23.92-15.311-10.99-7.88-21.35-16.59-30.98-26.03-5.4-5.29-10.56-10.8-15.49-16.529C26.09 391.771 2 331.65 2 266 2 120.431 120.43 2 266 2s264 118.431 264 264c0 66.66-24.83 127.62-65.73 174.12z" fill="#3f3d56"/></svg>