<svg xmlns="http://www.w3.org/2000/svg" xmlns:xlink="http://www.w3.org/1999/xlink" width="722.452" height="364.196" xmlns:v="https://vecta.io/nano"><style><![CDATA[.B{fill:#e6e6e6}.C{fill:#3f3d56}.D{fill:#ff6584}.E{fill:#7510f7}.F{fill:#ffb6b6}]]></style><path d="M652.683 296.231H103.374c-14.621-.016-26.47-11.865-26.487-26.487V61.307c.017-14.621 11.865-26.47 26.487-26.487h549.309c14.621.017 26.47 11.865 26.487 26.487v208.438c-.016 14.621-11.865 26.47-26.487 26.487z" fill="#fff"/><path d="M652.683 296.231H103.374c-14.621-.016-26.47-11.865-26.487-26.487V61.307c.017-14.621 11.865-26.47 26.487-26.487h549.309c14.621.017 26.47 11.865 26.487 26.487v208.438c-.016 14.621-11.865 26.47-26.487 26.487zM103.374 37.123c-6.414 0-12.565 2.548-17.1 7.083s-7.083 10.686-7.083 17.1v208.438c0 6.414 2.548 12.565 7.083 17.1s10.686 7.083 17.1 7.083h549.309c6.414 0 12.565-2.548 17.1-7.083s7.083-10.686 7.083-17.1v-78.592c0-85.068-68.961-154.029-154.029-154.029z" class="B"/><ellipse cx="294.666" cy="607.921" rx="2.825" ry="4.061" transform="matrix(.143981 -.98958 .98958 .143981 -588.12138 544.08622)" fill="#fff"/><ellipse cx="321.092" cy="605.343" rx="2.825" ry="4.061" transform="matrix(.143981 -.98958 .98958 .143981 -562.94877 568.02927)" class="C"/><ellipse cx="287.43" cy="586.528" rx="2.825" ry="4.061" transform="matrix(.143981 -.98958 .98958 .143981 -573.14491 518.61211)" class="D"/><ellipse cx="278.18" cy="578.336" rx="2.567" ry="1.785" transform="matrix(.007562 -.999971 .999971 .007562 -541.01619 584.23337)" class="B"/><ellipse cx="274.286" cy="562.013" rx="2.567" ry="1.785" transform="matrix(.007562 -.999971 .999971 .007562 -528.55893 564.14064)" class="C"/><ellipse cx="304.567" cy="590.74" rx="2.567" ry="1.785" transform="matrix(.007562 -.999971 .999971 .007562 -527.2322 622.92957)" class="B"/><ellipse cx="291.797" cy="597.115" rx="2.567" ry="1.785" transform="matrix(.007562 -.999971 .999971 .007562 -546.28142 616.48761)" class="D"/><ellipse cx="309.574" cy="608.9" rx="2.567" ry="1.785" transform="matrix(.007562 -.999971 .999971 .007562 -540.42354 645.95872)" class="C"/><ellipse cx="932.083" cy="274.371" rx="3.601" ry="5.177" transform="matrix(.245657 -.969357 .969357 .245657 198.37253 842.58896)" fill="#fff"/><ellipse cx="898.239" cy="274.153" rx="3.601" ry="5.177" transform="matrix(.245657 -.969357 .969357 .245657 173.05426 809.61785)" class="C"/><ellipse cx="938.434" cy="302.45" rx="3.601" ry="5.177" transform="matrix(.245657 -.969357 .969357 .245657 175.94525 869.92612)" class="D"/><ellipse cx="949.079" cy="314.056" rx="3.272" ry="2.276" transform="matrix(.111047 -.993815 .993815 .111047 292.79924 954.48891)" class="B"/><ellipse cx="951.862" cy="335.264" rx="3.272" ry="2.276" transform="matrix(.11105 -.99382 .99382 .11105 274.19651 976.10735)" class="C"/><ellipse cx="917.262" cy="294.848" rx="3.272" ry="2.276" transform="matrix(.111047 -.993815 .993815 .111047 283.60443 905.79321)" class="B"/><ellipse cx="934.294" cy="288.45" rx="3.272" ry="2.276" transform="matrix(.111047 -.993815 .993815 .111047 305.10362 917.03168)" class="D"/><ellipse cx="913.311" cy="271.163" rx="3.272" ry="2.276" transform="matrix(.111047 -.993815 .993815 .111047 303.63095 880.81227)" class="C"/><path d="M296.601 161.284a84.29 84.29 0 0 1-21.627 56.497v.012a86.56 86.56 0 0 1-6.242 6.265c-2.237 2.026-4.582 3.929-7.025 5.7q-2.557 1.865-5.251 3.524-3.196 1.986-6.576 3.674-2.505 1.261-5.113 2.349c-10.38 4.362-21.527 6.606-32.786 6.599a84.5 84.5 0 0 1-18.898-2.119c-2.867-.652-5.696-1.459-8.476-2.418-1.071-.357-2.142-.748-3.201-1.163a83.5 83.5 0 0 1-18.138-9.731c-32.797-23.091-44.876-66.036-28.925-102.838s55.548-57.35 94.823-49.205 67.435 42.745 67.434 82.856z" fill="#f2f2f2"/><use xlink:href="#B" class="E"/><g class="B"><path d="M549.859 160.568H403.607a4.61 4.61 0 0 1-4.6-4.606 4.61 4.61 0 0 1 4.6-4.606h146.252a4.61 4.61 0 0 1 4.6 4.606 4.61 4.61 0 0 1-4.6 4.606z"/><use xlink:href="#B" y="124.372"/><path d="M184.221 360.175c-16.511-21.961-26.054-46.519-26.366-74.518-1.108-3.142.537-6.587 3.676-7.702l56.277-19.912c3.142-1.108 6.587.537 7.702 3.676l26.366 74.518c1.108 3.142-.537 6.587-3.676 7.702l-56.278 19.912c-3.142 1.108-6.587-.537-7.702-3.676z"/></g><path d="M180.574 336.14c-9.93-10.04-14.181-27.948-16.951-47.907a5.66 5.66 0 0 1 3.443-7.213l48.366-17.113a5.66 5.66 0 0 1 7.213 3.443l23.463 66.311a5.66 5.66 0 0 1-3.443 7.213l-29.962 10.601c-13.106 4.621-27.479-2.239-32.129-15.335z" fill="#fff"/><path d="M223.292 303.071l-37.676 13.448a2.4 2.4 0 1 1-1.614-4.521l37.676-13.448a2.4 2.4 0 1 1 1.614 4.521zm-33.812-1.907l-8.289 2.959a2.4 2.4 0 1 1-1.614-4.521l8.289-2.959a2.4 2.4 0 1 1 1.614 4.521zm40.906 21.783l-37.676 13.448a2.4 2.4 0 1 1-1.614-4.521l37.676-13.448a2.4 2.4 0 1 1 1.614 4.521zm-3.547-9.938l-37.676 13.448a2.4 2.4 0 1 1-1.614-4.521l37.676-13.448a2.4 2.4 0 1 1 1.614 4.521z" class="E"/><path d="M192.628 123.001c1.227 9.899 8.086 18.061 18.061 18.061s18.061-8.086 18.061-18.061-8.129-17.138-18.061-18.061c-10.538-.979-19.636 5.352-18.061 18.061zm33.783 121.669c-11.059 1.901-22.385 1.6-33.327-.887 5.194-2.867 20.947-1.106 33.327.887z" fill="#2f2e41"/><path d="M156.117 276.438l8.675-20.966 6.835 3.797-4.128 21.327c1.148 3.753-.751 7.762-4.382 9.25s-7.798-.034-9.614-3.513-.683-7.768 2.614-9.897z" class="F"/><path d="M245.862 219.704v.012l-1.094 19.589c-10.38 4.362-21.527 6.606-32.786 6.599a84.5 84.5 0 0 1-18.898-2.119c-2.867-.652-5.696-1.459-8.476-2.418a5.23 5.23 0 0 1 1.244-.587c4.146-1.405.046-2.683.081-4.019.127-4.883 1.474-10.744 3.213-16.364l-7.739 19.807-4.031 10.295s.138 8.89-2.418 6.173c-2.568-2.718-2.384 6.08-2.384 6.08a8.01 8.01 0 0 0-2.027 2.096 1.78 1.78 0 0 0-.242 1.232v.012a1.54 1.54 0 0 0 .645.806c1.739 1.175-.76 4.284-1.866 5.516-.299.334-.495.53-.495.53l-10.629-.76v-.207c.046-1.255.334-7.865 1.981-9.443 1.808-1.739.921-4.491.921-4.491s4.721-4.18 1.555-7.577c-1.267-1.37-.702-9.489.852-19.992 3.397-23.17 11.539-57.948 15.063-57.453 1.481-7.192 6.867-12.948 13.946-14.902l11.481-3.155 2.05-8.096h16.168l2.81 5.32 11.781 5.32.15.069.369.161.138.438 6.553 20.59c2.948 3.386 2.833 23.17 2.084 40.939z" class="E"/><path d="M273.394 261.171l-10.948-19.874 7.236-2.964 14.072 16.549c3.647 1.448 5.591 5.436 4.484 9.201s-4.899 6.067-8.75 5.311-6.492-4.32-6.094-8.224z" class="F"/><path d="M236.57 157.348c1.947 3.499 19.758 12.499 16.671 21.534 0 0 16.732 52.348 18.908 52.006s4.299 5.066 4.299 5.066-.462 3.529.896 2.063 1.032 2.378 1.032 2.378-.65 3.393 1.073 2.471-.542 5.571-.542 5.571l-10.355 4.876-1.968-2.929s-4.205-.801-2.226-1.435-1.861-2.769-1.861-2.769-4.016-2.73-3.457-7.25-10.423-13.408-10.423-13.408c-7.55-14.906-11.68-30.21-11.666-45.997z" class="E"/><circle cx="212.685" cy="126.118" r="16.015" class="F"/><path d="M196.101 127.863c.507 3.48 3.473 8.336 2.779 8.336s-5.633-14.347-.695-15.282c3.582-.679 4.383-.083 7.731-1.535l-.472.445c2.216 1.612 5.3.618 7.829-.431 2.535-1.042 5.613-2.035 7.836-.431 1.396 1.007 1.987 2.758 2.855 4.244.868 1.493 2.473 2.904 4.126 2.445 1.322-.511 2.163-1.815 2.084-3.23-.007-1.375-1.798-2.684-1.195-3.918 1.787-3.657.18-6.149-3.716-7.87q-2.126-.323-4.251-.66c.743-1.029 1.643-1.933 2.667-2.681-.433-1.11-1.182-2.069-2.153-2.758a6.76 6.76 0 0 0-3.848-.556q-4.397.229-8.787.458a15.5 15.5 0 0 0-6.349 1.236c-2.417 1.243-4.001 3.668-5.154 6.134-2.584 5.543-2.174 10.003-1.285 16.053z" fill="#2f2e41"/><g class="B"><use xlink:href="#C"/><use xlink:href="#C" y="62"/><use xlink:href="#C" y="123.999"/><path d="M632.576 237.394a37 37 0 0 1-24.046-8.879c-2.235-1.914-4.617-5.24-7.079-9.887a22.61 22.61 0 0 1-.717-19.52c-1.299 1.321-2.735 2.499-4.285 3.514l-.783.521-.045-.939c-.03-.611-.045-1.22-.045-1.81 0-3.476 2.629-7.004 1.417-10.217-5.111-13.542-21.32-27.001 2.172-47.96 2.173-1.939-.73-5.815-.73-8.749 0-28.748 40.63-78.482 52.146-52.136 14.201 32.492 38.669 29.017 49.508 35.728l.157.475-.463.187c-2.372.997-4.871 1.662-7.425 1.975 2.723.555 5.502.788 8.279.694l.431-.015.105.419c1.033 4.145 1.555 8.402 1.555 12.674l-.002.462c-.019 6.563 2.754 12.824 7.628 17.219 7.697 7.018 12.088 16.949 12.098 27.364 0 6.094-4.142 14.094-7.617 19.732a11.16 11.16 0 0 1-8.191 5.247c-3.208.405-6.429-.636-8.794-2.841 1.645 3.307 3.788 6.342 6.355 8.997l.474.489-.589.343a36.97 36.97 0 0 1-18.638 5.033l-.383-.001a36.09 36.09 0 0 0-25.891 10.568 37.28 37.28 0 0 1-26.602 11.313z"/></g><path d="M619.846 295.988c-.331 0-.611-.244-.658-.572-1.74-15.516-1.844-31.173-.31-46.711 2.297-24.512 9.672-59.817 31.766-88.813.144-.189.378-.287.614-.257s.438.184.529.403.059.471-.085.66c-21.903 28.745-29.219 63.792-31.5 88.131a221.28 221.28 0 0 0 .303 46.399c.027.191-.03.384-.157.53s-.31.229-.503.229zm18.03-95.195c-.288 0-.544-.185-.633-.459s.008-.575.242-.744a91.71 91.71 0 0 1 20.246-10.306c11.17-4.089 28.156-7.797 45.643-2.231.35.111.544.486.432.836s-.486.544-.836.432c-17.128-5.451-33.807-1.805-44.782 2.213-7.035 2.539-13.727 5.943-19.921 10.133a.66.66 0 0 1-.391.127zm-30.454-75.85c-.021-.288.146-.556.413-.665s.574-.033.76.187a91.71 91.71 0 0 1 11.738 19.451c4.883 10.847 9.804 27.522 5.513 45.364-.055.232-.23.416-.458.484s-.475.008-.648-.156-.244-.408-.188-.639c4.203-17.477-.634-33.849-5.432-44.506a90.24 90.24 0 0 0-11.541-19.14.66.66 0 0 1-.155-.38z" class="C"/><path d="M63.274 224.082a36.09 36.09 0 0 0-25.891-10.568l-.383.001a36.97 36.97 0 0 1-18.638-5.033l-.589-.343.474-.489c2.567-2.656 4.71-5.69 6.355-8.997-2.365 2.205-5.587 3.245-8.794 2.841a11.16 11.16 0 0 1-8.191-5.247C4.142 190.61 0 182.61 0 176.515c.011-10.416 4.402-20.347 12.099-27.364 4.874-4.395 7.648-10.656 7.628-17.219l-.002-.462c-.001-4.272.521-8.528 1.555-12.674l.105-.419.431.015c2.777.095 5.556-.138 8.279-.694-2.554-.313-5.053-.978-7.425-1.975l-.463-.187.157-.475c10.839-6.711 35.306-3.236 49.508-35.728 11.515-26.347 52.146 23.388 52.146 52.136 0 2.933-2.903 6.81-.73 8.749 23.493 20.959 7.283 34.417 2.172 47.959-1.213 3.213 1.417 6.74 1.417 10.217 0 .59-.015 1.199-.045 1.81l-.045.939-.783-.521c-1.55-1.015-2.986-2.193-4.285-3.514a22.61 22.61 0 0 1-.717 19.52c-2.462 4.647-4.844 7.973-7.079 9.887-14.866 12.721-37.07 11.655-50.648-2.433z" class="B"/><path d="M102.606 293.989c.331 0 .611-.244.658-.572 1.74-15.516 1.844-31.173.31-46.711-2.297-24.512-9.672-59.817-31.766-88.813-.144-.189-.378-.287-.614-.257s-.438.184-.529.403-.059.471.085.66c21.903 28.745 29.219 63.792 31.5 88.131a221.28 221.28 0 0 1-.303 46.399c-.027.191.03.384.157.53s.31.229.503.229zm-18.03-95.195c.288 0 .544-.185.633-.459s-.008-.575-.242-.744a91.71 91.71 0 0 0-20.246-10.306c-11.17-4.089-28.156-7.797-45.643-2.231-.227.072-.397.26-.448.492s.026.474.202.634.423.214.65.142c17.128-5.451 33.807-1.805 44.782 2.213 7.035 2.539 13.727 5.943 19.921 10.133a.66.66 0 0 0 .391.127zm30.454-75.85c.021-.288-.146-.556-.413-.665s-.574-.033-.76.187a91.71 91.71 0 0 0-11.738 19.451c-4.883 10.847-9.804 27.522-5.513 45.364.055.232.23.416.458.484s.475.008.648-.156.244-.408.188-.639c-4.203-17.477.634-33.849 5.432-44.506a90.2 90.2 0 0 1 11.541-19.14.66.66 0 0 0 .155-.38z" class="C"/><defs ><path id="B" d="M549.859 98.382H403.607a4.61 4.61 0 0 1-4.6-4.606 4.61 4.61 0 0 1 4.6-4.606h146.252a4.61 4.61 0 0 1 4.606 4.606 4.61 4.61 0 0 1-4.606 4.606z"/><path id="C" d="M596.727 117.359H355.876a1 1 0 1 1 0-2h240.851a1 1 0 1 1 0 2z"/></defs></svg>