<svg xmlns="http://www.w3.org/2000/svg" width="1139.171" height="654.543" xmlns:v="https://vecta.io/nano"><style><![CDATA[.B{fill:#3f3d56}.C{fill:#7510f7}.D{fill:#f2f2f2}]]></style><circle cx="246.827" cy="521.765" r="59.243" class="D"/><circle cx="256.46" cy="513.095" r="59.243" class="C"/><path d="M304.171 447.543h733v2h-733zM683.793 18.652h-260.17V13.29H305.652v5.362H44.41a17.6 17.6 0 0 0-17.599 17.599v356.252c0 9.719 7.879 17.599 17.599 17.599h639.383c9.719 0 17.599-7.879 17.599-17.599V36.251a17.6 17.6 0 0 0-17.599-17.599z" class="B"/><g class="C"><path d="M50.406 49.754h627.391v353.913H50.406z"/><circle cx="363.565" cy="33.667" r="6.435"/></g><path opacity=".1" d="M498.374 403.667H50.406V49.754l447.968 353.913z"/><circle cx="148.574" cy="316.876" r="60.307" class="D"/><path d="M509.953 240.622h58.605v12.246h-58.605zm-70.851-95.343h200.307v5.248H439.102zm0 16.619h200.307v5.248H439.102zm0 16.62h200.307v5.248H439.102zm0 16.619h200.307v5.248H439.102zm0 16.62h200.307v5.248H439.102z" class="B"/><path d="M614.917 56.934h24.492v24.492h-24.492z" class="D"/><path d="M650.78 92.797h-29.74v-29.74h29.74zm-28.447-1.293h27.154V64.35h-27.154zm96.674 305.728h-61.229v-4.412c0-.232-.092-.454-.256-.619a.87.87 0 0 0-.619-.256H635.91c-.232 0-.454.092-.619.256a.87.87 0 0 0-.256.619v4.412h-13.121v-4.412c0-.232-.092-.454-.256-.619a.87.87 0 0 0-.619-.256h-20.993c-.232 0-.454.092-.619.256a.87.87 0 0 0-.256.619v4.412H586.05v-4.412c0-.232-.092-.454-.256-.619a.87.87 0 0 0-.619-.256h-20.993c-.232 0-.454.092-.619.256a.87.87 0 0 0-.256.619v4.412h-13.121v-4.412c0-.232-.092-.454-.256-.619a.87.87 0 0 0-.619-.256h-20.993c-.232 0-.454.092-.619.256a.87.87 0 0 0-.256.619v4.412h-13.121v-4.412c0-.232-.092-.454-.256-.619a.87.87 0 0 0-.619-.256h-20.993c-.232 0-.454.092-.619.256a.87.87 0 0 0-.256.619v4.412h-13.121v-4.412c0-.232-.092-.454-.256-.619a.87.87 0 0 0-.619-.256H456.59c-.232 0-.454.092-.619.256a.87.87 0 0 0-.256.619v4.412H442.6v-4.412c0-.232-.092-.454-.256-.619a.87.87 0 0 0-.619-.256H277.281c-.232 0-.454.092-.619.256a.87.87 0 0 0-.256.619v4.412h-13.121v-4.412c0-.232-.092-.454-.256-.619a.87.87 0 0 0-.619-.256h-20.993c-.232 0-.454.092-.619.256a.87.87 0 0 0-.256.619v4.412h-13.121v-4.412c0-.232-.092-.454-.256-.619a.87.87 0 0 0-.619-.256h-20.993c-.232 0-.454.092-.619.256a.87.87 0 0 0-.256.619v4.412H191.56v-4.412c0-.232-.092-.454-.256-.619a.87.87 0 0 0-.619-.256h-20.993c-.232 0-.454.092-.619.256a.87.87 0 0 0-.256.619v4.412h-13.121v-4.412c0-.232-.092-.454-.256-.619a.87.87 0 0 0-.619-.256H133.83c-.232 0-.454.092-.619.256a.87.87 0 0 0-.256.619v4.412h-13.121v-4.412c0-.232-.092-.454-.256-.619a.87.87 0 0 0-.619-.256H97.967c-.232 0-.454.092-.619.256a.87.87 0 0 0-.256.619v4.412h-13.12v-4.412c0-.232-.092-.454-.256-.619a.87.87 0 0 0-.619-.256H62.104c-.232 0-.454.092-.619.256a.87.87 0 0 0-.256.619v4.412H20.993C9.399 397.232 0 406.631 0 418.225v9.492c0 11.594 9.399 20.993 20.993 20.993h698.014c11.594 0 20.993-9.399 20.993-20.993v-9.492c0-11.594-9.399-20.993-20.993-20.993zm-555.836-42.689c-41.974 0-76-34.026-76-76s34.026-76 76-76 76 34.026 76 76c-.047 41.954-34.046 75.953-76 76zm0-150c-40.869 0-74 33.131-74 74s33.131 74 74 74 74-33.131 74-74c-.046-40.85-33.15-73.954-74-74zm423-172h255v2h-255zm-180 528h733v2h-733zm-213.499 92h255v2h-255z" class="B"/><path d="M471 550h28v28h-28z" class="C"/><path d="M516 562h-34v-34h34zm-32.522-1.478h31.043v-31.043h-31.043z" class="B"/><path d="M796 22h28v28h-28z" class="C"/><path d="M841 34h-34V0h34zm-32.522-1.478h31.043V1.478h-31.043z" class="B"/><path d="M1078 550h28v28h-28z" class="C"/><path d="M1123 562h-34v-34h34zm-32.522-1.478h31.043v-31.043h-31.043zm-33.307-328.564h-2.379v-65.162c0-10.002-3.973-19.595-11.046-26.668s-16.665-11.046-26.668-11.046H879.025c-10.002 0-19.595 3.973-26.668 11.046s-11.046 16.665-11.046 26.668v357.481c0 10.002 3.973 19.595 11.046 26.668s16.665 11.046 26.668 11.046h138.053c10.002 0 19.595-3.973 26.668-11.046s11.046-16.665 11.046-26.668V278.341h2.379z" class="B"/><path d="M1046.761 169.013v356.96c.003 15.555-12.605 28.167-28.16 28.17h-138.72a28.17 28.17 0 0 1-28.16-28.17v-356.96c.002-15.552 12.608-28.158 28.16-28.16h16.83a13.38 13.38 0 0 0 12.39 18.43h79.09a13.38 13.38 0 0 0 12.39-18.43h18.02c15.552.002 28.158 12.608 28.16 28.16z" class="C"/><path d="M928.58 376.218h41.324v12.246H928.58zm-49.959-95.343h141.24v5.248h-141.24zm0 16.619h141.24v5.248h-141.24zm0 16.62h141.24v5.248h-141.24zm0 16.619h141.24v5.248h-141.24zm0 16.619h141.24v5.248h-141.24z" class="B"/><path d="M929.684 211.179h24.492v24.492h-24.492z" class="D"/><path d="M939.059 217.303v29.74h29.74v-29.74zm28.45 28.45h-27.16v-27.16h27.16z" class="B"/><path d="M1046.761 487.853v38.12c.003 15.555-12.605 28.167-28.16 28.17h-138.72a28.17 28.17 0 0 1-28.16-28.17v-192.21l116.87 92.33 2 1.58 21.74 17.17 2.03 1.61z" opacity=".1"/><circle cx="937.241" cy="498.707" r="43.868" class="D"/><path d="M320.171 654.543c-48.049 0-87-38.951-87-87s38.951-87 87-87 87 38.951 87 87c-.054 48.026-38.974 86.946-87 87zm0-172c-46.944 0-85 38.056-85 85s38.056 85 85 85 85-38.056 85-85c-.053-46.922-38.078-84.947-85-85zm630 50c-30.376 0-55-24.624-55-55s24.624-55 55-55 55 24.624 55 55c-.034 30.361-24.639 54.966-55 55zm0-108c-29.271 0-53 23.729-53 53s23.729 53 53 53 53-23.729 53-53c-.033-29.257-23.743-52.967-53-53z" class="B"/></svg>