<svg width="194" height="88" viewBox="0 0 194 88" fill="none" xmlns="http://www.w3.org/2000/svg">
<g clip-path="url(#clip0)">
<path d="M23.1761 25.2727H15.8466V21.9489C15.8466 18.7102 17.2102 17.0057 20.5341 17.0057C21.983 17.0057 22.8352 17.3466 23.3466 17.517L24.7955 13.1705C24.0284 12.8295 22.4943 12.3182 20.0227 12.3182C15.3352 12.3182 10.8182 15.1307 10.8182 20.7557V25.2727H5.53409V29.5341H10.8182V58H15.8466V29.5341H23.1761V25.2727ZM30.2234 58H35.2518V25.2727H30.2234V58ZM32.7802 19.8182C34.7404 19.8182 36.3597 18.2841 36.3597 16.4091C36.3597 14.5341 34.7404 13 32.7802 13C30.82 13 29.2006 14.5341 29.2006 16.4091C29.2006 18.2841 30.82 19.8182 32.7802 19.8182ZM58.6946 25.2727H51.706V17.4318H46.6776V25.2727H41.7344V29.5341H46.6776V49.9886C46.6776 55.6989 51.2798 58.4261 55.5412 58.4261C57.4162 58.4261 58.6094 58.0852 59.2912 57.8295L58.2685 53.3125C57.8423 53.3977 57.1605 53.5682 56.0526 53.5682C53.8366 53.5682 51.706 52.8864 51.706 48.625V29.5341H58.6946V25.2727ZM67.6435 58H72.5014V52.9716H73.098C74.206 54.7614 76.3366 58.6818 82.6435 58.6818C90.8253 58.6818 96.5355 52.1193 96.5355 41.7216C96.5355 31.4091 90.8253 24.8466 82.5582 24.8466C76.1662 24.8466 74.206 28.767 73.098 30.4716H72.6719V14.3636H67.6435V58ZM72.5866 41.6364C72.5866 34.3068 75.8253 29.3636 81.9616 29.3636C88.3537 29.3636 91.5071 34.733 91.5071 41.6364C91.5071 48.625 88.2685 54.1648 81.9616 54.1648C75.9105 54.1648 72.5866 49.0511 72.5866 41.6364Z" fill="#000046"/>
<path d="M143.557 78.2727C143.557 72.5625 140.011 69.3068 135.384 69.3068C130.73 69.3068 127.21 72.5625 127.21 78.2727C127.21 83.9574 130.73 87.2386 135.384 87.2386C140.011 87.2386 143.557 83.983 143.557 78.2727ZM139.815 78.2727C139.815 81.9716 138.06 83.9744 135.384 83.9744C132.699 83.9744 130.952 81.9716 130.952 78.2727C130.952 74.5739 132.699 72.571 135.384 72.571C138.06 72.571 139.815 74.5739 139.815 78.2727Z" fill="#4D4D4D"/>
<path d="M146.517 87H150.207V82.0398L152.023 79.8239L156.804 87H161.219L154.665 77.3608L161.142 69.5455H156.719L150.438 77.2415H150.207V69.5455H146.517V87Z" fill="#4D4D4D"/>
<path d="M163.517 87H167.207V80.8125H169.901L173.207 87H177.281L173.574 80.2159C175.56 79.3636 176.659 77.6335 176.659 75.2472C176.659 71.7784 174.366 69.5455 170.403 69.5455H163.517V87ZM167.207 77.8466V72.5625H169.696C171.827 72.5625 172.858 73.5085 172.858 75.2472C172.858 76.9773 171.827 77.8466 169.713 77.8466H167.207Z" fill="#4D4D4D"/>
<path d="M190.341 77.642C190.017 75.2301 188.074 73.7386 184.767 73.7386C181.418 73.7386 179.21 75.2898 179.219 77.8125C179.21 79.7727 180.446 81.0426 183.003 81.554L185.27 82.0057C186.412 82.2358 186.932 82.6534 186.949 83.3097C186.932 84.0852 186.088 84.6392 184.818 84.6392C183.523 84.6392 182.662 84.0852 182.44 83.0199L178.869 83.2074C179.21 85.7131 181.341 87.2557 184.81 87.2557C188.202 87.2557 190.631 85.5256 190.639 82.9432C190.631 81.0511 189.395 79.9176 186.855 79.3977L184.486 78.9205C183.267 78.6562 182.815 78.2386 182.824 77.608C182.815 76.8239 183.702 76.3125 184.827 76.3125C186.088 76.3125 186.838 77.0028 187.017 77.8466L190.341 77.642Z" fill="#4D4D4D"/>
<path d="M159.835 25.2727H152.847V17.4318H147.818V25.2727H142.875V29.5341H147.818V49.9886C147.818 55.6989 152.42 58.4261 156.682 58.4261C158.557 58.4261 159.75 58.0852 160.432 57.8295L159.409 53.3125C158.983 53.3977 158.301 53.5682 157.193 53.5682C154.977 53.5682 152.847 52.8864 152.847 48.625V29.5341H159.835V25.2727ZM189.995 32.6023C188.418 27.9574 184.881 24.8466 178.404 24.8466C171.501 24.8466 166.387 28.767 166.387 34.3068C166.387 38.8239 169.072 41.8494 175.08 43.2557L180.535 44.5341C183.837 45.3011 185.393 46.8778 185.393 49.1364C185.393 51.9489 182.41 54.25 177.722 54.25C173.61 54.25 171.032 52.4815 170.137 48.9659L165.364 50.1591C166.536 55.7202 171.117 58.6818 177.808 58.6818C185.414 58.6818 190.592 54.527 190.592 48.8807C190.592 44.321 187.737 41.4446 181.898 40.017L177.04 38.8239C173.163 37.8651 171.415 36.5653 171.415 34.0511C171.415 31.2386 174.398 29.1932 178.404 29.1932C182.793 29.1932 184.604 31.6222 185.478 33.8807L189.995 32.6023Z" fill="#000046"/>
<circle cx="121" cy="42" r="17" fill="#FF0066"/>
<path d="M128.86 37.0645L118.806 47.1182L114.237 42.5484" stroke="white" stroke-width="4" stroke-linecap="round" stroke-linejoin="round"/>
</g>
<defs>
<clipPath id="clip0">
<rect width="194" height="88" fill="white"/>
</clipPath>
</defs>
</svg>
